<?xml version="1.0" encoding="UTF-8" standalone="no" ?>
<!DOCTYPE svg PUBLIC "-//W3C//DTD SVG 1.1//EN" "http://www.w3.org/Graphics/SVG/1.1/DTD/svg11.dtd">
<svg xmlns="http://www.w3.org/2000/svg" xmlns:xlink="http://www.w3.org/1999/xlink" version="1.1" width="800" height="800" viewBox="0 0 800 800" xml:space="preserve">
<desc>Created with Fabric.js 5.2.4</desc>
<defs>
</defs>
<g transform="matrix(1.51 0 0 1.51 410.32 394) rotate(-45)" id="651a1047-3670-49c8-902a-cc6d62430e34" >
<path style="stroke: rgb(159,160,160); stroke-width: 0; stroke-dasharray: none; stroke-linecap: butt; stroke-dashoffset: 0; stroke-linejoin: miter; stroke-miterlimit: 4; fill: rgb(255,255,255);fill-opacity: .25; fill-rule: nonzero; opacity: 1;" vector-effect="non-scaling-stroke"  transform=" translate(-1061.99, -569.42)" d="M 1063.1 310.972 C 1076.46 311.111 1089.8 312.435 1103 314.54 C 1112.92 316.155 1122.73 318.589 1132.17 322.09 C 1147.64 327.753 1162.1 335.987 1175.2 345.938 C 1185.21 353.522 1194.41 362.129 1202.9 371.371 C 1216.43 385.9 1229.01 401.506 1238.56 418.974 C 1242.58 426.269 1245.97 433.91 1248.58 441.824 C 1252.96 455.042 1255.41 468.848 1256.48 482.714 C 1257.34 494.554 1257.05 506.449 1256.3 518.286 C 1254.99 537.995 1251.8 557.74 1244.88 576.31 C 1242.52 582.637 1239.63 588.761 1236.27 594.621 C 1233.18 600.21 1230.4 606.017 1228.68 612.188 C 1227.08 617.693 1226.15 623.418 1226.28 629.16 C 1226.28 633.189 1226.64 637.214 1227.34 641.182 C 1228.35 648.066 1227.95 655.258 1225.44 661.795 C 1223.32 667.638 1220.03 673.038 1215.88 677.665 C 1210.69 683.619 1205.01 689.133 1199.75 695.033 C 1196.31 698.788 1192.88 702.574 1189.93 706.737 C 1188.82 708.418 1188.77 710.486 1188.34 712.395 C 1183.92 735.807 1177.02 758.708 1168.49 780.938 C 1164.87 790.114 1160.23 799.029 1153.64 806.437 C 1146.15 814.8 1136.44 821.199 1125.72 824.57 C 1117.8 827.119 1109.52 828.152 1101.31 829.218 C 1087.99 830.786 1074.58 831.294 1061.18 831.382 C 1051.7 831.422 1042.21 831 1032.77 830.19 C 1025.9 829.662 1019.05 828.923 1012.27 827.764 C 1005.15 826.637 998.062 824.958 991.463 822.001 C 981.953 817.803 973.589 811.109 967.299 802.842 C 962.478 796.59 958.796 789.529 955.924 782.193 C 951.493 771.213 947.727 759.976 944.31 748.643 C 941.141 737.93 938.488 727.067 936.206 716.132 C 935.656 713.533 935.245 710.903 934.676 708.309 C 934 706.13 932.261 704.541 930.904 702.78 C 923.888 694.501 916.274 686.761 908.927 678.782 C 905.391 674.866 902.207 670.57 900.028 665.742 C 897.789 661.049 896.364 655.944 896.11 650.739 C 895.851 646.922 896.061 643.075 896.789 639.318 C 897.377 636.037 897.617 632.702 897.584 629.37 C 897.625 625.046 897.33 620.691 896.253 616.489 C 894.463 608.74 891.449 601.289 887.46 594.414 C 884.586 589.244 881.93 583.943 879.795 578.423 C 874.044 563.811 870.796 548.328 868.933 532.771 C 867.318 518.871 866.741 504.856 867.043 490.868 C 867.291 480.477 868.203 470.072 870.374 459.894 C 873.114 446.745 877.416 433.88 883.583 421.932 C 888.788 411.937 895.043 402.517 901.866 393.56 C 911.85 380.537 923.144 368.565 935.053 357.293 C 942.856 350.027 951.324 343.477 960.284 337.7 C 975.5 327.937 992.329 320.567 1010.01 316.654 C 1022.3 313.922 1034.82 312.372 1047.37 311.481 C 1052.61 311.13 1057.85 310.92 1063.1 310.972 z M 1061.4 785.49 C 1059.41 792.172 1057.01 798.75 1055.61 805.592 C 1054.99 809.28 1055.24 813.036 1055.21 816.757 C 1055.21 818.198 1055.58 819.656 1056.5 820.792 C 1057.83 822.744 1059.93 824.461 1062.41 824.404 C 1064.98 824.461 1067.44 822.791 1068.42 820.427 C 1070.09 816.92 1070.03 812.902 1069.62 809.125 C 1069 803.472 1067.24 798.028 1065.25 792.727 C 1064.34 790.214 1063.39 787.71 1062.28 785.28 C 1061.88 784.792 1061.72 785.161 1061.4 785.49 z M 1056.36 780.743 C 1052.17 784.081 1048.2 787.696 1044.54 791.601 C 1041.18 795.242 1038.25 799.318 1036.14 803.814 C 1035.66 804.647 1035.26 805.573 1035.4 806.557 C 1035.45 808.484 1035.08 810.616 1036.21 812.319 C 1037.55 814.372 1040.27 815.459 1042.64 814.71 C 1044.77 814.116 1046.63 812.746 1047.98 811.001 C 1050.3 808.096 1051.69 804.587 1052.96 801.127 C 1055.19 794.832 1056.44 788.234 1057.24 781.62 C 1057.17 781.256 1057.53 780.607 1057.21 780.425 C 1056.88 780.24 1056.64 780.635 1056.36 780.743 z M 1067.53 780.863 C 1067.89 784.829 1068.62 788.752 1069.41 792.653 C 1070.61 798.245 1072.2 803.873 1075.24 808.769 C 1076.76 811.166 1078.68 813.566 1081.44 814.563 C 1083.46 815.132 1085.89 814.987 1087.43 813.407 C 1088.8 812.169 1089.66 810.362 1089.57 808.5 C 1089.61 806.229 1088.83 804.032 1087.69 802.095 C 1084.19 795.464 1078.83 790.09 1073.39 785.036 C 1071.59 783.404 1069.84 781.702 1067.85 780.293 C 1067.24 780.094 1067.56 780.47 1067.53 780.863 z M 1005.04 796.463 C 999.64 796.655 994.563 798.799 989.786 801.152 C 987.836 802.142 985.918 803.194 984.045 804.322 C 983.662 804.7 983.55 805.187 984.193 805.302 C 988.632 806.089 993.119 806.697 997.451 807.99 C 1001.09 809.029 1004.61 810.443 1008.06 811.998 C 1009.7 812.686 1011.58 812.792 1013.27 812.19 C 1015.17 811.619 1017.1 810.378 1017.71 808.397 C 1018.53 805.344 1017.15 801.96 1014.69 800.057 C 1012.94 798.653 1010.92 797.551 1008.77 796.911 C 1007.56 796.57 1006.3 796.44 1005.04 796.463 z M 1116.82 796.582 C 1115.38 796.906 1114.14 797.75 1112.81 798.345 C 1110.61 799.472 1108.32 800.962 1107.39 803.36 C 1106.58 805.516 1106.43 808.172 1107.91 810.082 C 1109.7 811.995 1112.5 812.93 1115.08 812.46 C 1118.08 811.784 1120.73 810.109 1123.64 809.138 C 1129.05 807.171 1134.77 806.246 1140.45 805.391 C 1140.81 805.392 1141.54 805.137 1141.17 804.694 C 1140.94 804.278 1140.36 804.15 1139.99 803.857 C 1136.65 801.917 1133.16 800.243 1129.6 798.755 C 1126.51 797.482 1123.22 796.573 1119.86 796.601 C 1118.85 796.572 1117.83 796.585 1116.82 796.582 z M 1121.91 772.628 C 1119.79 772.72 1117.71 774.061 1117.01 776.105 C 1116.06 778.247 1116.65 780.694 1117.56 782.738 C 1118.95 785.554 1121.41 787.611 1123.73 789.642 C 1129.89 794.799 1137.1 798.469 1144.32 801.894 C 1144.69 802.043 1145.39 802.431 1145.22 801.728 C 1145.21 800.37 1144.44 799.176 1143.97 797.941 C 1140.91 791.215 1137.73 784.372 1132.72 778.842 C 1130.67 776.696 1128.56 774.405 1125.75 773.255 C 1124.53 772.79 1123.21 772.598 1121.91 772.628 z M 1001.97 772.658 C 999.315 772.753 996.824 774.05 994.965 775.904 C 989.533 780.854 985.7 787.276 982.635 793.89 C 981.482 796.411 980.279 798.925 979.433 801.57 C 979.448 802.201 980.012 801.932 980.4 801.797 C 983.576 800.561 986.563 798.9 989.563 797.297 C 993.087 795.349 996.592 793.312 999.741 790.789 C 1002.15 788.734 1004.48 786.532 1006.4 784.002 C 1007.89 781.851 1008.8 779.021 1007.86 776.467 C 1007.03 774.45 1005.15 772.7 1002.88 772.658 C 1002.57 772.656 1002.27 772.644 1001.97 772.658 z M 974.295 764.123 C 972.203 764.202 970.093 765.484 969.423 767.531 C 968.262 770.201 968.783 773.274 969.939 775.851 C 971.131 778.681 972.253 781.547 973.06 784.514 C 974.439 789.238 975.362 794.085 976.065 798.952 C 976.505 798.806 976.854 798.556 977.04 798.12 C 978.239 796.108 979.256 793.993 980.322 791.91 C 982.689 787.103 984.747 781.935 984.757 776.497 C 984.667 773.184 983.014 770.172 981.224 767.476 C 979.764 765.431 977.337 764.039 974.79 764.123 L 974.295 764.123 z M 1149.48 764.123 C 1146.33 764.322 1143.6 766.549 1142.26 769.326 C 1140.88 771.754 1139.64 774.475 1139.97 777.337 C 1140.36 782.785 1142.41 787.951 1144.84 792.785 C 1145.84 794.733 1146.92 796.643 1148.12 798.473 C 1149.37 796.933 1149.18 794.834 1149.64 793.007 C 1150.67 787.005 1152.5 781.148 1154.98 775.589 C 1155.92 773.417 1156.36 770.964 1155.81 768.636 C 1155.26 766.098 1152.9 764.035 1150.25 764.113 C 1150 764.1 1149.74 764.121 1149.48 764.123 z M 1048.71 737.1 C 1047.02 737.085 1045.21 737.358 1043.9 738.52 C 1042.45 739.63 1041.11 741.235 1041.16 743.167 C 1040.93 749.449 1040.98 755.738 1040.97 762.022 C 1041 764.292 1040.88 766.581 1041.2 768.833 C 1041.79 771.834 1044.61 774.236 1047.69 774.22 C 1050.12 774.335 1052.6 774.492 1055 774.004 C 1057.11 773.416 1058.74 771.66 1059.62 769.712 C 1059.99 768.064 1059.84 766.36 1059.94 764.685 C 1060.08 757.882 1060.15 751.072 1059.93 744.27 C 1059.85 742.568 1059.43 740.765 1058.14 739.556 C 1057.04 738.298 1055.54 737.201 1053.8 737.205 C 1052.11 737.057 1050.41 737.116 1048.71 737.1 z M 1075.31 736.86 C 1073.39 736.958 1071.42 736.705 1069.56 737.257 C 1067.61 738.119 1065.9 739.742 1065.28 741.814 C 1064.83 744.373 1065.03 746.987 1064.95 749.572 C 1064.94 755.776 1064.94 761.985 1064.96 768.185 C 1065.43 770.569 1067.09 772.764 1069.38 773.651 C 1071.75 774.216 1074.22 773.951 1076.64 773.978 C 1078.14 773.984 1079.75 773.851 1080.95 772.843 C 1082.51 771.638 1083.73 769.849 1083.88 767.843 C 1084.11 764.385 1084.07 760.913 1084.1 757.447 C 1084.07 752.955 1084.16 748.459 1083.94 743.971 C 1083.8 742.575 1083.62 741.066 1082.62 739.996 C 1081.81 739.096 1080.94 738.193 1079.89 737.585 C 1078.49 736.852 1076.85 736.843 1075.31 736.86 z M 1022.51 733.755 C 1020.92 733.693 1019.21 734.239 1018.27 735.601 C 1017.3 736.739 1016.89 738.234 1016.9 739.709 C 1016.67 743.78 1016.81 747.86 1016.77 751.935 C 1016.78 756.247 1016.73 760.566 1016.99 764.87 C 1017.28 766.7 1018.51 768.191 1019.67 769.567 C 1021.11 770.985 1023.18 771.311 1025.05 771.826 C 1026.65 772.166 1028.28 772.521 1029.92 772.482 C 1032.26 772.273 1034.07 770.149 1034.36 767.893 C 1034.64 765.969 1034.54 764.014 1034.62 762.075 C 1034.71 755.823 1034.77 749.568 1034.63 743.318 C 1034.55 740.948 1033.98 738.506 1032.46 736.633 C 1031.46 735.308 1029.96 734.348 1028.29 734.195 C 1026.39 733.85 1024.45 733.751 1022.51 733.755 z M 1100.96 733.59 C 1099.2 733.694 1097.39 733.715 1095.68 734.19 C 1093.61 734.894 1092.08 736.684 1091.18 738.616 C 1090.53 740.317 1090.78 742.176 1090.64 743.955 C 1090.44 751.718 1090.43 759.488 1090.69 767.249 C 1090.71 768.555 1091.15 769.878 1092.13 770.773 C 1093.24 772.001 1095 772.716 1096.63 772.225 C 1099.16 771.685 1101.81 771.366 1104.12 770.129 C 1106.54 768.757 1107.88 766.001 1108.06 763.29 C 1108.28 759.926 1108.21 756.55 1108.24 753.18 C 1108.27 748.3 1108.24 743.42 1108.25 738.54 C 1107.56 736.755 1106.68 734.752 1104.82 733.932 C 1103.61 733.417 1102.24 733.53 1100.96 733.59 z M 1001.06 728.243 C 999.109 728.27 996.933 728.059 995.292 729.321 C 993.946 730.298 992.953 731.849 992.986 733.552 C 992.783 737.308 992.893 741.073 992.85 744.832 L 992.857 754.178 C 993.624 756.066 994.533 758.17 996.495 759.082 C 998.568 760.12 1000.86 760.567 1003.09 761.15 C 1005 761.564 1007.23 761.519 1008.75 760.119 C 1009.82 759.188 1010.75 757.846 1010.58 756.36 C 1010.55 749.135 1010.68 741.907 1010.46 734.685 C 1010.37 733.122 1010.01 731.432 1008.75 730.384 C 1007.54 729.186 1005.93 728.367 1004.21 728.339 C 1003.16 728.251 1002.11 728.243 1001.06 728.243 z M 1124.19 728.092 C 1122.24 728.166 1120.21 728.029 1118.34 728.698 C 1116.64 729.408 1115.15 730.82 1114.59 732.599 C 1114.23 734.243 1114.36 735.945 1114.28 737.617 C 1114.24 743.762 1114.08 749.91 1114.3 756.052 C 1114.35 757.247 1114.68 758.467 1115.55 759.333 C 1117.03 761.024 1119.51 761.579 1121.63 760.933 C 1123.99 760.419 1126.4 759.893 1128.57 758.8 C 1130.06 757.745 1131.29 756.196 1131.75 754.413 C 1132.16 751.811 1131.94 749.165 1132.01 746.543 C 1132.02 741.973 1132.11 737.399 1131.89 732.832 C 1131.66 731.127 1130.48 729.672 1129.03 728.808 C 1127.55 728.042 1125.81 728.112 1124.19 728.092 z M 974.077 723.705 C 972.341 724.159 970.864 725.787 970.891 727.634 C 970.759 733.215 970.644 738.803 970.882 744.382 C 970.97 746.032 971.267 747.833 972.554 748.998 C 973.957 750.66 976.018 751.537 978.058 752.134 C 979.529 752.626 981.087 753.314 982.661 752.998 C 983.787 752.617 985.122 752.18 985.674 751.041 C 986.417 749.09 986.177 746.965 986.28 744.923 C 986.298 739.921 986.382 734.914 986.159 729.916 C 986.059 728.55 985.617 727.162 984.589 726.209 C 983.355 724.838 981.556 724.068 979.728 723.954 C 977.934 723.732 976.112 723.563 974.305 723.677 L 974.077 723.705 z M 1148.56 723.495 C 1146.45 723.613 1144.25 723.639 1142.28 724.487 C 1140.9 725.244 1139.65 726.45 1139.15 727.978 C 1138.8 729.388 1138.94 730.86 1138.87 732.3 C 1138.84 737.93 1138.77 743.562 1138.95 749.19 C 1138.97 750.194 1139.26 751.309 1140.21 751.818 C 1141.31 752.625 1142.74 753.313 1144.1 752.763 C 1146.83 751.95 1149.75 751.24 1151.92 749.294 C 1153.39 747.887 1154.14 745.854 1154.12 743.836 C 1154.35 740.05 1154.21 736.255 1154.24 732.465 C 1154.2 730.49 1154.31 728.473 1153.84 726.54 C 1153.47 725.175 1152.36 724.01 1151.03 723.575 C 1150.21 723.467 1149.38 723.456 1148.56 723.495 z M 1165.52 737.783 C 1163.27 738.065 1161.37 740.059 1161.26 742.341 C 1160.96 744.735 1162.5 747.385 1164.95 747.873 C 1166.85 748.407 1169.12 747.714 1170.13 745.954 C 1171.45 743.978 1171.44 741.051 1169.75 739.296 C 1168.64 738.222 1167.07 737.611 1165.52 737.783 z M 958.26 737.707 C 955.876 737.921 953.852 740 953.677 742.384 C 953.38 744.083 954.113 745.891 955.523 746.891 C 957.165 748.285 959.925 748.539 961.514 746.929 C 963.069 745.568 964.057 743.234 963.166 741.241 C 962.398 739.256 960.465 737.623 958.26 737.707 z M 1048.27 691.86 C 1046.63 691.831 1044.85 691.937 1043.54 693.035 C 1041.61 694.413 1040.25 696.654 1040.27 699.059 C 1040.09 703.414 1040.18 707.775 1040.15 712.133 C 1040.16 716.244 1040.08 720.362 1040.33 724.468 C 1040.47 726.088 1041.11 727.642 1042.18 728.874 C 1043.13 730.116 1044.63 730.841 1046.19 730.932 C 1048.71 731.249 1051.26 731.171 1053.8 731.085 C 1056.52 730.77 1058.93 728.751 1059.85 726.194 C 1060.41 724.429 1060.23 722.55 1060.31 720.728 C 1060.3 713.3 1060.43 705.87 1060.21 698.445 C 1060.06 696.2 1058.58 694.296 1056.89 692.933 C 1055.84 692.1 1054.49 691.923 1053.2 691.905 C 1051.55 691.832 1049.91 691.878 1048.27 691.86 z M 1076.81 691.612 C 1074.6 691.67 1072.38 691.559 1070.19 691.844 C 1068.12 692.29 1066.32 693.792 1065.41 695.688 C 1064.44 698.447 1064.67 701.421 1064.6 704.295 C 1064.57 711.413 1064.68 718.53 1064.69 725.648 C 1065.69 727.594 1067 729.617 1069.09 730.494 C 1071.12 730.956 1073.22 730.805 1075.29 730.889 C 1077.18 730.864 1079.24 731.082 1080.92 730.032 C 1082.14 729.205 1083.22 728.095 1083.92 726.787 C 1084.95 724.715 1084.61 722.338 1084.71 720.105 C 1084.78 712.646 1084.71 705.184 1084.74 697.726 C 1084.63 696.822 1084.03 696.069 1083.6 695.287 C 1082.51 693.497 1080.78 691.934 1078.62 691.711 C 1078.02 691.633 1077.41 691.602 1076.81 691.612 z M 1025.28 692.138 C 1023.2 692.248 1020.89 691.944 1019.09 693.225 C 1017.28 694.511 1016.06 696.67 1016.19 698.918 C 1016.03 706.402 1016.15 713.888 1016.12 721.372 C 1016.14 722.389 1016.07 723.429 1016.15 724.432 C 1017.15 726.361 1018.29 728.509 1020.42 729.358 C 1022.7 730.294 1025.21 730.366 1027.63 730.574 C 1029.2 730.636 1030.86 730.179 1031.9 728.936 C 1032.92 727.909 1033.61 726.52 1033.56 725.048 C 1033.77 719.645 1033.68 714.237 1033.72 708.833 C 1033.7 705.398 1033.77 701.956 1033.52 698.528 C 1033.4 697.077 1033 695.547 1031.85 694.568 C 1030.79 693.372 1029.42 692.272 1027.75 692.217 C 1026.93 692.137 1026.11 692.103 1025.28 692.138 z M 1100.25 691.987 C 1098.5 692.071 1096.6 691.808 1095 692.658 C 1093.27 693.794 1091.87 695.494 1091.23 697.462 C 1091.14 705.982 1090.98 714.503 1091.14 723.022 C 1091.25 724.895 1091.2 727.04 1092.62 728.471 C 1093.62 729.627 1095.1 730.397 1096.65 730.31 C 1098.86 730.334 1101.07 730.041 1103.24 729.645 C 1104.47 729.41 1105.53 728.675 1106.35 727.737 C 1107.48 726.504 1108.38 725.03 1108.87 723.435 C 1108.95 719.293 1108.86 715.15 1108.9 711.007 C 1108.88 706.661 1108.96 702.308 1108.76 697.966 C 1108.48 695.643 1106.91 693.543 1104.86 692.481 C 1103.42 691.812 1101.79 692.024 1100.25 691.987 z M 999.915 692.235 C 998.129 692.268 996.116 692.094 994.65 693.322 C 993.333 694.3 992.317 695.806 992.318 697.492 C 991.959 701.78 992.175 706.088 992.157 710.385 L 992.213 718.455 C 993.169 720.371 994.254 722.525 996.374 723.349 C 998.314 724.143 1000.38 724.586 1002.4 725.115 C 1004.5 725.574 1007.02 725.384 1008.55 723.698 C 1009.9 722.263 1009.9 720.171 1009.99 718.32 C 1010.12 714.299 1010.05 710.275 1010.07 706.253 C 1010.05 703.602 1010.11 700.941 1009.88 698.299 C 1009.52 695.909 1007.9 693.664 1005.65 692.735 C 1003.82 692.042 1001.83 692.307 999.915 692.235 z M 1122.21 691.987 C 1120.68 692.004 1119.11 692.371 1117.9 693.361 C 1116.45 694.344 1115.25 695.907 1115.23 697.724 C 1114.98 700.501 1115.07 703.295 1115.01 706.08 C 1115 710.919 1114.9 715.764 1115.12 720.598 C 1115.2 722.099 1116.12 723.427 1117.37 724.222 C 1118.8 725.218 1120.67 725.453 1122.32 724.934 C 1125.12 724.287 1128.07 723.667 1130.39 721.881 C 1131.99 720.594 1132.79 718.525 1132.77 716.506 C 1133.03 711.235 1132.89 705.955 1132.89 700.68 C 1132.86 699.026 1132.85 697.334 1132.41 695.731 C 1131.58 693.541 1129.29 692.135 1126.99 692.065 C 1125.4 691.94 1123.8 692.003 1122.21 691.987 z M 954.63 712.778 C 951.78 712.981 948.745 714.007 947.018 716.413 C 945.992 717.943 946.262 720.031 947.341 721.457 C 948.908 723.495 951.458 724.583 953.961 724.885 C 957.326 725.282 960.962 724.224 963.317 721.726 C 964.501 720.41 964.951 718.322 963.945 716.775 C 962.461 714.338 959.615 713.118 956.867 712.84 C 956.126 712.746 955.376 712.725 954.63 712.778 z M 1169.21 712.763 C 1166.39 712.907 1163.35 713.665 1161.41 715.86 C 1160.1 717.396 1159.81 719.947 1161.29 721.478 C 1164.73 725.08 1170.63 726.05 1174.99 723.594 C 1176.76 722.574 1178.36 720.819 1178.39 718.68 C 1178.04 715.924 1175.63 713.846 1173.03 713.199 C 1171.79 712.854 1170.5 712.745 1169.21 712.763 z M 976.005 692.138 C 974.584 692.129 973.108 692.464 972.041 693.456 C 970.79 694.448 969.993 696.007 970.091 697.62 C 969.936 703.048 970.029 708.482 970.17 713.909 C 970.241 715.26 970.723 716.577 971.614 717.602 C 972.351 718.632 973.357 719.519 974.625 719.79 C 976.521 720.376 978.462 720.943 980.452 721.05 C 982.323 721.06 984.404 720.126 985.056 718.261 C 985.55 715.64 985.312 712.96 985.387 710.31 C 985.388 705.868 985.464 701.422 985.272 696.983 C 985.086 695.027 983.697 693.249 981.805 692.673 C 979.953 692.012 977.939 692.148 976.005 692.138 z M 1146.16 691.995 C 1144.68 691.953 1143.11 692.178 1141.93 693.144 C 1140.52 694.137 1139.46 695.736 1139.49 697.507 C 1139.26 702.256 1139.41 707.012 1139.36 711.765 C 1139.38 713.647 1139.33 715.548 1139.59 717.414 C 1140.08 719.7 1142.59 721.192 1144.85 720.788 C 1147.11 720.55 1149.35 719.991 1151.41 719.033 C 1153.01 718.213 1153.92 716.547 1154.58 714.945 C 1154.77 713.497 1154.66 712.024 1154.72 710.565 C 1154.77 705.961 1154.86 701.351 1154.63 696.75 C 1154.55 695.471 1154.11 694.145 1153.05 693.346 C 1151.71 692.074 1149.75 691.95 1148 691.995 L 1146.16 691.995 z M 947.707 684.03 C 944.924 684.061 942.167 684.707 939.64 685.87 C 937.909 686.645 936.146 687.771 935.357 689.566 C 934.666 691.381 935.672 693.376 937.126 694.494 C 939.462 696.401 942.492 697.237 945.446 697.533 C 948.644 697.806 951.884 697.702 955.053 697.193 C 957.444 696.725 959.831 695.796 961.65 694.138 C 962.878 693.012 963.711 691.179 963.013 689.55 C 962.313 687.704 960.43 686.727 958.753 685.912 C 955.557 684.4 951.976 683.96 948.473 684.024 L 947.707 684.03 z M 1174.94 684.023 C 1172.15 683.972 1169.31 684.379 1166.77 685.587 C 1164.79 686.433 1162.63 687.461 1161.64 689.488 C 1160.85 691.357 1161.95 693.511 1163.54 694.572 C 1166.51 696.708 1170.2 697.632 1173.82 697.623 C 1176.69 697.68 1179.61 697.67 1182.42 697.001 C 1184.63 696.421 1186.89 695.468 1188.4 693.69 C 1189.41 692.493 1190.05 690.65 1189.13 689.223 C 1187.74 686.875 1185.09 685.723 1182.6 684.919 C 1180.13 684.13 1177.51 683.995 1174.94 684.023 z M 1102.25 650.813 C 1100.81 653.458 1099.7 656.273 1098.18 658.88 C 1095.92 663 1093.18 666.86 1089.93 670.256 C 1088.97 671.27 1088.06 672.44 1087.88 673.871 C 1087.48 675.589 1087.8 677.629 1089.26 678.771 C 1091.06 680.461 1093.65 680.933 1096.04 680.755 C 1097.26 680.787 1098.48 680.364 1099.31 679.456 C 1100.78 678.083 1101.92 676.385 1102.87 674.623 C 1104.02 672.086 1103.94 669.228 1103.98 666.503 C 1104 661.369 1103.81 656.217 1103.07 651.133 C 1103.1 650.793 1102.83 650.094 1102.49 650.409 L 1102.25 650.813 z M 1021.62 650.685 C 1021.26 653.367 1021.03 656.07 1020.83 658.769 C 1020.55 662.804 1020.41 666.871 1020.82 670.901 C 1021.1 673.289 1022.03 675.594 1023.55 677.463 C 1024.58 678.881 1025.82 680.52 1027.71 680.686 C 1029.14 680.847 1030.6 680.736 1032.02 680.477 C 1034.18 680.022 1036.37 678.632 1036.95 676.392 C 1037.55 674.2 1036.48 671.91 1034.91 670.395 C 1032.53 667.817 1030.15 665.198 1028.4 662.14 C 1026.16 658.478 1024.27 654.619 1022.37 650.776 C 1022.06 650.515 1021.76 649.947 1021.62 650.685 z M 1016.25 646.553 C 1013.04 648.506 1010.01 650.753 1006.7 652.56 C 1003.22 654.554 999.508 656.129 995.64 657.189 C 993.725 657.78 991.688 658.83 990.942 660.817 C 990.207 662.754 990.814 665.003 992.041 666.601 C 993.279 668.01 994.949 668.953 996.57 669.856 C 997.257 670.278 998.091 670.281 998.826 669.989 C 1001.05 669.35 1003.21 668.386 1005.07 666.998 C 1007.1 665.296 1008.45 662.97 1009.85 660.757 C 1012.46 656.366 1014.62 651.717 1016.65 647.028 C 1016.87 646.622 1016.97 645.955 1016.38 646.475 L 1016.25 646.553 z M 1107.89 646.313 C 1109.27 650.043 1111.07 653.597 1112.84 657.153 C 1114.66 660.651 1116.62 664.187 1119.53 666.91 C 1121.4 668.507 1123.77 669.354 1126.09 670.069 C 1126.98 670.301 1127.91 670.056 1128.65 669.525 C 1130.44 668.496 1132.36 667.387 1133.32 665.472 C 1134.2 663.988 1134.52 662.025 1133.57 660.493 C 1132.76 658.939 1131.21 657.936 1129.56 657.437 C 1126.84 656.443 1124.04 655.6 1121.45 654.263 C 1117.02 652.15 1112.96 649.374 1108.85 646.722 C 1108.56 646.65 1108.13 646.081 1107.89 646.313 z M 1062.51 596.197 C 1060.51 597.768 1058.97 599.813 1057.26 601.669 C 1050.74 609.141 1044.41 616.782 1038 624.348 C 1035.53 627.379 1033.06 630.543 1031.81 634.303 C 1030.89 636.922 1030.53 639.704 1030.54 642.472 C 1030.46 646.312 1030.56 650.287 1032.1 653.871 C 1033.93 658.224 1036.72 662.349 1040.76 664.915 C 1044.3 667.226 1048.76 668.119 1052.9 667.177 C 1056.27 666.504 1059.24 664.579 1061.73 662.277 C 1062.05 661.912 1062.51 661.64 1063 661.681 C 1064.21 662.182 1065.06 663.234 1066.11 663.995 C 1069.79 666.908 1074.79 668.278 1079.41 667.184 C 1083.69 666.275 1087.51 663.69 1090.15 660.228 C 1093.44 656.077 1095.15 650.807 1095.31 645.54 C 1095.55 640.432 1094.84 635.132 1092.31 630.62 C 1090.35 627.01 1087.48 624.036 1084.91 620.875 C 1079.03 613.843 1073.13 606.825 1067.09 599.925 C 1065.93 598.653 1064.79 597.307 1063.42 596.264 C 1063.1 596.18 1062.82 595.951 1062.51 596.197 z M 1168.28 650.737 C 1166.04 650.712 1163.87 651.469 1161.97 652.619 C 1159.65 653.909 1157.28 655.63 1156.43 658.268 C 1155.66 660.598 1156.08 663.511 1158.08 665.106 C 1160.21 666.733 1163.15 667.248 1165.68 666.346 C 1168.03 665.596 1170.16 664.286 1172.51 663.539 C 1178.26 661.45 1184.31 660.408 1190.35 659.549 C 1190.76 659.347 1190.59 658.703 1190.09 658.625 C 1185.89 656.055 1181.46 653.822 1176.81 652.214 C 1174.06 651.289 1171.19 650.668 1168.28 650.737 z M 955.995 650.873 C 953.825 650.816 951.641 651.016 949.56 651.66 C 945.879 652.779 942.379 654.418 938.962 656.17 C 937.197 657.087 935.461 658.059 933.757 659.085 C 938.224 660.256 942.852 660.695 947.289 661.995 C 950.838 662.925 954.287 664.212 957.589 665.809 C 959.717 666.739 962.193 667.141 964.415 666.29 C 966.336 665.637 968.253 664.141 968.498 662.003 C 968.96 658.956 967.499 655.796 965.01 654.023 C 963.366 652.79 961.526 651.792 959.605 651.08 C 958.415 650.868 957.2 650.864 955.995 650.873 z M 1171.18 626.873 C 1168.9 627.043 1166.54 628.598 1166.14 630.968 C 1165.44 634.307 1166.75 637.854 1169.18 640.191 C 1175.28 646.612 1183.07 651.103 1190.99 654.894 C 1192.09 655.422 1193.21 655.92 1194.34 656.385 C 1194.83 655.155 1193.99 653.974 1193.57 652.858 C 1190.43 645.611 1186.93 638.343 1181.55 632.458 C 1179.4 630.205 1177.01 627.836 1173.85 627.156 C 1172.98 626.943 1172.08 626.852 1171.18 626.873 z M 952.515 626.91 C 950.111 627.029 947.777 628.056 946.067 629.751 C 942.014 633.279 938.832 637.699 936.285 642.406 C 933.933 646.638 931.804 651.007 930.165 655.568 C 929.952 656.099 930.607 656.315 930.992 656.135 C 938.097 652.931 945.05 649.243 951.196 644.415 C 953.571 642.436 955.701 640.145 957.469 637.609 C 958.775 635.547 959.365 632.858 958.47 630.525 C 957.784 629.028 956.532 627.732 954.977 627.154 C 954.179 626.908 953.343 626.885 952.515 626.91 z M 924.592 618.308 C 922.45 618.583 920.523 620.132 919.886 622.211 C 919.016 624.369 919.397 626.777 920.141 628.912 C 920.994 631.431 922.279 633.782 923.024 636.341 C 924.75 641.591 925.774 647.036 926.666 652.48 C 926.714 652.968 927.381 653.112 927.553 652.589 C 929.741 649.095 931.541 645.359 933.044 641.522 C 934.382 637.968 935.522 634.226 935.408 630.39 C 935.227 627.863 934.115 625.524 932.962 623.31 C 931.932 621.415 930.379 619.736 928.336 618.939 C 927.169 618.421 925.87 618.14 924.592 618.308 z M 1198.75 618.3 C 1195.8 618.624 1193.22 620.619 1191.83 623.19 C 1190.34 625.573 1189.12 628.279 1189.27 631.147 C 1189.34 635.883 1191.16 640.355 1193.08 644.611 C 1194.34 647.299 1195.72 649.934 1197.25 652.477 C 1197.56 652.814 1198.24 652.73 1198.17 652.183 C 1199.11 645.983 1200.25 639.751 1202.61 633.911 C 1203.4 631.85 1204.47 629.882 1205.04 627.741 C 1205.38 626.21 1205.3 624.615 1205.17 623.063 C 1204.75 620.122 1201.73 618.015 1198.83 618.294 L 1198.76 618.299 L 1198.75 618.3 z M 1095.9 621.15 C 1098.33 625.07 1101.16 628.741 1104.27 632.152 C 1109.23 637.583 1115.19 642.135 1121.84 645.299 C 1125.6 647.135 1129.5 648.718 1133.53 649.858 C 1137.3 650.804 1141.28 650.477 1145.03 649.599 C 1147.58 648.953 1150.19 647.715 1151.59 645.382 C 1152.68 643.632 1153.18 641.485 1152.71 639.453 C 1152.33 637.253 1151.04 635.191 1149.07 634.084 C 1147.35 632.956 1145.3 632.408 1143.26 632.475 C 1139.54 632.415 1135.82 632.457 1132.1 632.334 C 1127.55 632.215 1122.98 632.186 1118.45 631.624 C 1112.01 630.677 1106.06 627.708 1100.7 624.132 C 1099.04 622.987 1097.43 621.756 1095.82 620.535 L 1095.9 621.15 z M 1028.74 620.618 C 1026.97 622.047 1025.16 623.433 1023.25 624.668 C 1023.61 624.952 1024.17 625.111 1024.35 625.519 C 1024.56 626.067 1024.32 626.643 1024 627.097 C 1023.31 626.703 1022.63 626.273 1021.98 625.808 C 1015.61 629.376 1008.51 631.989 1001.14 632.116 C 993.766 632.401 986.38 632.271 979.014 632.699 C 977.35 632.967 975.93 633.965 974.55 634.868 C 973.303 635.903 972.326 637.355 972.02 638.957 C 971.796 640.758 971.855 642.67 972.582 644.357 C 973.589 646.756 975.837 648.435 978.294 649.145 C 983.561 650.903 989.427 650.785 994.624 648.835 C 998.757 647.327 1002.78 645.509 1006.63 643.367 C 1010.35 641.333 1013.73 638.719 1016.81 635.813 C 1021.4 631.523 1025.43 626.628 1028.77 621.312 C 1028.78 621.061 1029.28 620.47 1028.74 620.618 z M 1137.98 610.77 C 1134.81 611.004 1132.08 613.837 1131.99 617.025 C 1131.8 619.443 1132.93 621.95 1135 623.261 C 1137 624.716 1139.79 624.765 1141.95 623.641 C 1144.09 622.514 1145.64 620.237 1145.64 617.783 C 1145.77 615.843 1144.92 613.924 1143.49 612.625 C 1142.07 611.134 1139.99 610.575 1137.98 610.77 z M 985.17 610.725 C 981.88 610.979 979.026 613.929 978.994 617.249 C 978.852 619.461 979.902 621.675 981.691 622.981 C 982.922 624.031 984.554 624.559 986.167 624.403 C 988.047 624.334 989.882 623.477 991.07 622.005 C 992.212 620.748 992.769 619.036 992.669 617.348 C 992.59 614.14 990.018 611.098 986.771 610.78 C 986.242 610.692 985.703 610.698 985.17 610.725 z M 960.87 606.33 C 957.915 606.693 955.164 609.059 954.844 612.099 C 954.504 614.48 955.31 617.157 957.383 618.532 C 959.231 619.891 961.772 620.531 963.948 619.591 C 966.023 618.814 967.652 616.987 968.138 614.819 C 968.699 612.808 968.279 610.542 966.909 608.944 C 965.509 607.12 963.181 606.012 960.87 606.33 z M 1162.32 606.338 C 1158.82 606.7 1155.82 610.111 1156.26 613.671 C 1156.49 616.125 1158.02 618.496 1160.35 619.418 C 1163.44 620.786 1167.51 619.49 1169.08 616.46 C 1170.42 613.678 1169.96 609.934 1167.5 607.914 C 1166.06 606.762 1164.16 606.178 1162.32 606.338 z M 1012.4 604.748 C 1009.58 604.95 1006.82 606.954 1006.25 609.807 C 1005.6 612.411 1006.4 615.499 1008.69 617.052 C 1010.6 618.37 1013.16 618.664 1015.34 617.925 C 1017.63 617.054 1019.43 614.874 1019.56 612.39 C 1019.83 609.933 1018.88 607.249 1016.74 605.876 C 1015.5 604.977 1013.91 604.663 1012.4 604.748 z M 1111.55 604.717 C 1109.29 604.693 1107.11 605.995 1106.04 607.985 C 1104.52 610.429 1104.65 613.883 1106.65 616.026 C 1108.22 617.87 1110.81 618.625 1113.16 618.178 C 1115.55 617.829 1117.67 616.076 1118.36 613.746 C 1119.39 610.58 1117.81 606.792 1114.78 605.366 C 1113.78 604.871 1112.66 604.662 1111.55 604.717 z M 1032.7 591.097 C 1030.13 591.204 1027.73 592.967 1026.89 595.399 C 1026.16 596.944 1026.08 598.804 1026.85 600.346 C 1027.69 602.517 1029.63 604.333 1031.98 604.629 C 1034.1 605.026 1036.49 604.507 1037.97 602.859 C 1039.08 601.829 1039.9 600.436 1039.97 598.895 C 1040.17 596.87 1039.8 594.587 1038.18 593.194 C 1036.73 591.79 1034.72 590.994 1032.7 591.097 z M 938.197 591.082 C 935.844 591.111 933.524 592.451 932.472 594.583 C 931.429 596.217 931.163 598.353 931.979 600.138 C 932.935 602.647 935.347 604.716 938.115 604.706 C 941.101 604.909 944.157 602.883 944.978 599.979 C 945.242 598.758 945.222 597.478 945.053 596.245 C 944.673 594.011 942.806 592.277 940.748 591.507 C 939.934 591.208 939.064 591.06 938.197 591.082 z M 1185.5 591.12 C 1182.83 591.221 1180.35 593.215 1179.8 595.846 C 1179.14 598.239 1179.52 601.115 1181.45 602.831 C 1183.44 604.768 1186.6 605.2 1189.13 604.17 C 1190.22 603.611 1191.1 602.706 1191.88 601.768 C 1192.9 600.505 1193.2 598.825 1193.01 597.242 C 1192.92 595.611 1192.11 594.086 1190.89 593.021 C 1189.7 591.85 1188.09 591.031 1186.4 591.114 C 1186.1 591.096 1185.8 591.116 1185.5 591.12 z M 1090.34 591.158 C 1087.4 591.449 1084.85 594.007 1084.69 596.976 C 1084.45 598.904 1084.84 601.034 1086.28 602.431 C 1087.44 603.722 1089.05 604.704 1090.83 604.667 C 1092.7 604.863 1094.69 604.349 1096.03 602.982 C 1097.6 601.6 1098.48 599.444 1098.17 597.354 C 1098 595.158 1096.89 592.899 1094.84 591.903 C 1093.47 591.181 1091.86 591.045 1090.34 591.158 z M 984.262 497.662 C 975.429 497.769 966.554 499.987 958.942 504.533 C 949.38 510.162 941.55 518.802 937.158 529.016 C 933.197 538.416 932.078 548.941 933.668 558.998 C 934.868 566.428 937.65 573.642 942.074 579.756 C 946.704 586.292 952.686 591.9 959.61 595.942 C 967.038 600.207 975.596 602.241 984.112 602.576 C 987.378 602.631 990.645 602.347 993.876 601.881 C 1000.96 600.812 1007.82 598.218 1013.76 594.205 C 1019.5 590.384 1024.49 585.48 1028.54 579.914 C 1033.02 573.66 1036.06 566.353 1037.12 558.722 C 1038.68 548.314 1037.52 537.372 1033.02 527.802 C 1028.75 518.797 1021.87 511.091 1013.54 505.651 C 1006.95 501.376 999.337 498.672 991.508 497.97 C 989.101 497.731 986.68 497.645 984.262 497.662 z M 1142.9 497.722 C 1138.31 497.734 1133.73 498.334 1129.31 499.602 C 1121.12 501.857 1113.59 506.338 1107.58 512.333 C 1104.54 515.389 1101.76 518.727 1099.42 522.349 C 1093.43 531.786 1090.92 543.244 1091.82 554.345 C 1092.26 560.436 1093.78 566.451 1096.37 571.986 C 1100.74 581.426 1108.02 589.422 1116.8 594.964 C 1124.48 599.805 1133.53 602.313 1142.59 602.509 C 1149.94 602.672 1157.39 601.539 1164.2 598.683 C 1170.02 596.292 1175.33 592.738 1179.89 588.414 C 1186.84 581.944 1192.22 573.657 1194.64 564.435 C 1195.96 559.745 1196.43 554.859 1196.4 549.998 C 1196.5 545.483 1196.02 540.955 1194.89 536.581 C 1192.76 528.132 1188.42 520.247 1182.36 513.978 C 1176.59 507.86 1169.4 502.999 1161.38 500.359 C 1155.99 498.529 1150.29 497.673 1144.6 497.725 L 1142.9 497.722 z M 1199.57 571.313 C 1196.1 571.721 1193.21 575.135 1193.66 578.647 C 1193.81 580.765 1194.96 582.833 1196.87 583.851 C 1199.15 585.245 1202.34 585.361 1204.47 583.593 C 1206.45 582.054 1207.85 579.418 1207.17 576.884 C 1206.59 574.244 1204.5 571.844 1201.76 571.406 C 1201.04 571.26 1200.29 571.238 1199.57 571.313 z M 923.332 571.283 C 921.078 571.501 919.11 573.049 918.13 575.056 C 916.927 577.281 917.186 580.153 918.708 582.164 C 919.974 583.958 922.171 585.06 924.375 584.869 C 926.409 584.82 928.486 583.933 929.644 582.205 C 931.795 579.396 931.288 574.894 928.453 572.733 C 926.979 571.646 925.163 571.105 923.332 571.283 z M 1076.6 567.248 C 1073.18 567.264 1070.03 570.247 1070.01 573.697 C 1069.85 576.549 1071.49 579.6 1074.29 580.534 C 1077.15 581.631 1080.81 580.655 1082.4 577.95 C 1083.84 575.698 1084.03 572.537 1082.47 570.301 C 1081.12 568.443 1078.91 567.192 1076.6 567.248 z M 1047.03 567.338 C 1043.94 567.674 1041.24 570.345 1041.04 573.479 C 1040.74 576.695 1042.93 580.119 1046.18 580.75 C 1048.93 581.411 1052.13 580.368 1053.6 577.877 C 1055.35 575.166 1054.93 571.165 1052.4 569.078 C 1050.96 567.785 1048.96 567.116 1047.03 567.338 z M 895.62 553.357 C 893.441 553.391 891.584 554.949 890.493 556.731 C 889.706 558.31 889.644 560.226 890.183 561.893 C 891.074 564.236 893.498 565.972 896.04 565.79 C 897.758 565.829 899.49 565.156 900.633 563.853 C 902.872 561.577 902.828 557.497 900.483 555.309 C 899.211 554.063 897.422 553.245 895.62 553.357 z M 1227.8 553.373 C 1224.94 553.802 1222.41 556.349 1222.43 559.312 C 1222.26 561.455 1223.31 563.66 1225.18 564.762 C 1227.7 566.422 1231.52 566.078 1233.41 563.618 C 1235.14 561.546 1235.45 558.306 1233.82 556.082 C 1232.51 554.167 1230.11 553.043 1227.8 553.373 z M 1052.56 543.6 C 1049.15 543.733 1046.11 546.744 1046.05 550.176 C 1045.88 553.261 1048.02 556.377 1051.07 557.09 C 1053.27 557.729 1055.76 557.132 1057.41 555.531 C 1059.25 553.907 1060.13 551.25 1059.47 548.862 C 1058.84 546.319 1056.72 544.13 1054.08 543.744 C 1053.58 543.651 1053.07 543.595 1052.56 543.6 z M 1071.38 543.697 C 1069.67 543.706 1067.98 544.451 1066.87 545.772 C 1065.48 547.13 1064.73 549.104 1064.98 551.039 C 1065.24 553.903 1067.42 556.54 1070.23 557.224 C 1072.44 557.558 1074.95 557.082 1076.49 555.343 C 1077.66 554.228 1078.61 552.735 1078.53 551.063 C 1078.64 549.349 1078.31 547.501 1077.06 546.232 C 1075.87 544.778 1074.12 543.676 1072.19 543.71 C 1071.92 543.692 1071.65 543.699 1071.38 543.697 z M 918.037 543.6 C 915.468 543.955 913.037 545.771 912.256 548.285 C 911.926 549.984 911.851 551.838 912.543 553.456 C 913.311 554.986 914.668 556.226 916.238 556.898 C 917.926 557.5 919.856 557.447 921.513 556.777 C 923.561 555.806 925.256 553.848 925.517 551.547 C 925.729 549.917 925.477 548.162 924.464 546.825 C 923.048 544.771 920.564 543.385 918.037 543.6 z M 1205.3 543.69 C 1202.13 543.795 1199.47 546.61 1199.13 549.687 C 1198.87 551.732 1199.5 553.947 1201.08 555.333 C 1202.43 556.688 1204.36 557.51 1206.29 557.28 C 1208.02 557.185 1209.79 556.528 1210.86 555.103 C 1212.31 553.445 1213.35 551.072 1212.57 548.882 C 1211.78 546.6 1210.07 544.367 1207.6 543.834 C 1206.85 543.671 1206.07 543.648 1205.3 543.69 z M 1229.53 526.748 C 1226.38 527.017 1223.41 529.279 1222.52 532.343 C 1222.14 534.082 1222.15 535.935 1222.62 537.655 C 1223.41 539.882 1225.25 541.728 1227.46 542.542 C 1229.52 543.259 1231.83 543.116 1233.85 542.353 C 1236.9 541.008 1238.82 537.614 1238.67 534.324 C 1238.36 531.166 1236.19 528.157 1233.16 527.11 C 1231.99 526.749 1230.75 526.686 1229.53 526.748 z M 893.94 526.725 C 891.968 526.675 890.057 527.55 888.692 528.952 C 887.393 530.12 886.293 531.723 886.377 533.542 C 886.342 535 886.2 536.516 886.638 537.925 C 887.276 539.506 888.515 540.786 889.862 541.795 C 892.033 543.22 894.856 543.253 897.284 542.545 C 900.305 541.543 902.4 538.462 902.425 535.306 C 902.589 532.868 901.788 530.233 899.79 528.701 C 898.177 527.331 896.064 526.562 893.94 526.725 z M 921.975 519.975 C 918.966 520.223 916.2 522.68 915.904 525.739 C 915.471 528.262 916.446 531.126 918.711 532.476 C 920.77 533.948 923.689 534.157 925.862 532.807 C 928.641 531.216 930.157 527.554 928.958 524.517 C 928.153 522.143 925.958 520.249 923.427 520.03 C 922.947 519.958 922.459 519.954 921.975 519.975 z M 1201.2 520.072 C 1198.97 520.266 1196.83 521.66 1195.98 523.769 C 1194.96 525.984 1194.94 528.825 1196.52 530.791 C 1198.23 533.205 1201.59 534.402 1204.39 533.294 C 1206.84 532.439 1208.77 530.099 1208.84 527.46 C 1209.07 524.665 1207.63 521.588 1204.92 520.537 C 1203.75 520.075 1202.44 520.008 1201.2 520.072 z M 1077.8 516.097 C 1074.95 516.467 1072.22 518.586 1071.69 521.49 C 1071.2 524.705 1072.98 528.264 1076.11 529.408 C 1078.29 530.17 1080.81 529.592 1082.65 528.255 C 1084.81 526.582 1085.54 523.52 1084.91 520.935 C 1084.19 517.827 1080.93 515.682 1077.8 516.097 z M 1045.3 516.158 C 1042.57 516.491 1040.17 518.653 1039.62 521.36 C 1039.05 523.454 1039.72 525.759 1041.04 527.431 C 1042.33 528.685 1044.05 529.604 1045.87 529.718 C 1048.08 529.747 1050.38 528.799 1051.71 526.992 C 1053.47 524.436 1053.51 520.63 1051.34 518.294 C 1049.82 516.671 1047.49 515.936 1045.3 516.158 z M 892.838 499.222 C 890.325 499.245 888.194 500.858 886.494 502.56 C 884.949 504.094 884.066 506.217 883.995 508.387 C 883.726 512.666 886.268 517.083 890.319 518.658 C 893.099 519.825 896.464 519.697 899.002 517.994 C 902.302 516.017 904.653 512.192 904.227 508.276 C 903.847 505.145 901.968 502.258 899.372 500.501 C 897.919 499.508 896.134 499.106 894.39 499.222 L 892.838 499.222 z M 1230.07 499.125 C 1228.21 499.172 1226.33 499.719 1224.87 500.895 C 1222.64 502.503 1220.77 504.981 1220.75 507.832 C 1220.65 509.774 1220.54 511.84 1221.49 513.612 C 1223.24 517.01 1226.89 519.586 1230.79 519.416 C 1234.78 519.234 1238.67 516.691 1240.13 512.931 C 1240.83 510.723 1240.85 508.303 1240.26 506.069 C 1239.66 503.716 1238 501.721 1235.87 500.573 C 1234.13 499.522 1232.11 498.995 1230.07 499.125 z M 1185.99 496.275 C 1183.3 496.252 1180.52 497.984 1179.85 500.676 C 1179.1 503.022 1179.39 505.863 1181.21 507.656 C 1183.3 509.952 1187.08 510.661 1189.73 508.891 C 1191.09 507.977 1192.26 506.683 1192.7 505.071 C 1193.4 502.892 1193.05 500.304 1191.42 498.617 C 1190.13 497.106 1188.17 496.117 1186.16 496.275 L 1185.99 496.275 z M 938.257 496.237 C 935.104 496.203 932.042 498.684 931.706 501.873 C 931.27 504.66 932.537 507.783 935.132 509.077 C 937.996 510.622 941.967 509.881 943.891 507.194 C 946.331 504.104 945.32 498.93 941.82 497.07 C 940.733 496.508 939.48 496.231 938.257 496.237 z M 1032.76 496.283 C 1030.56 496.273 1028.54 497.621 1027.41 499.453 C 1026.33 501.043 1026.03 503.098 1026.61 504.928 C 1027.2 507.188 1029.11 508.964 1031.35 509.543 C 1033.56 510.251 1036.12 509.757 1037.82 508.146 C 1039.25 506.945 1040.11 505.108 1040.03 503.235 C 1040.1 501.347 1039.49 499.382 1038.05 498.099 C 1036.67 496.702 1034.69 496.113 1032.76 496.283 z M 1090.68 496.29 C 1088.31 496.501 1085.94 497.937 1085.14 500.261 C 1084.21 502.625 1084.48 505.51 1086.15 507.486 C 1087.26 508.916 1089.01 509.834 1090.83 509.775 C 1092.7 509.884 1094.78 509.567 1096.1 508.112 C 1097.36 506.915 1098.21 505.252 1098.17 503.491 C 1098.43 501.086 1097.25 498.615 1095.21 497.317 C 1093.88 496.447 1092.24 496.179 1090.68 496.29 z M 957.518 482.647 C 954.998 482.626 952.509 484.137 951.506 486.474 C 950.626 488.175 950.466 490.276 951.336 492.014 C 952.218 494.123 954.155 495.802 956.447 496.134 C 958.903 496.614 961.542 495.59 963.076 493.622 C 964.144 492.404 964.595 490.75 964.437 489.151 C 964.278 486.332 962.356 483.484 959.503 482.861 C 958.855 482.698 958.185 482.643 957.518 482.647 z M 1166.72 482.655 C 1164.55 482.614 1162.36 483.774 1161.35 485.731 C 1160.16 487.736 1159.69 490.41 1160.88 492.518 C 1162.15 494.648 1164.45 496.285 1167 496.233 C 1170.48 496.418 1173.81 493.372 1173.81 489.855 C 1173.93 487.369 1172.81 484.671 1170.51 483.51 C 1169.35 482.895 1168.03 482.605 1166.72 482.655 z M 1008.19 480.915 C 1005.6 481.284 1003.2 483.107 1002.3 485.588 C 1001.33 488.543 1002.58 492.12 1005.34 493.646 C 1007.34 494.961 1010.05 495.039 1012.12 493.843 C 1014.13 492.807 1015.53 490.712 1015.65 488.449 C 1015.87 486.101 1014.87 483.638 1012.9 482.285 C 1011.57 481.269 1009.88 480.688 1008.19 480.915 z M 1115.28 480.982 C 1113.43 480.957 1111.69 481.911 1110.56 483.35 C 1108.72 485.572 1108.38 489.003 1109.94 491.46 C 1111.65 493.98 1115.11 495.394 1118.03 494.273 C 1120.84 493.223 1122.95 490.282 1122.63 487.231 C 1122.46 484.971 1121.08 482.896 1119.12 481.787 C 1117.98 481.077 1116.59 480.939 1115.28 480.982 z M 897.067 465.472 C 894.364 465.534 891.619 466.37 889.566 468.181 C 886.32 470.764 884.117 474.925 884.554 479.136 C 885.067 484.073 888.362 488.785 893.119 490.451 C 896.083 491.387 899.382 491.308 902.287 490.193 C 905.779 488.569 908.795 485.526 909.674 481.694 C 910.173 479.58 910.17 477.357 909.825 475.22 C 909.264 472.429 907.492 469.996 905.329 468.205 C 903.025 466.323 900.051 465.279 897.067 465.472 z M 1226.88 465.45 C 1222.41 465.591 1218.15 468.282 1216.06 472.228 C 1215.11 473.848 1214.71 475.727 1214.7 477.592 C 1214.57 479.923 1214.89 482.353 1216.16 484.365 C 1218.08 487.794 1221.52 490.58 1225.53 490.959 C 1228.74 491.337 1232.18 490.773 1234.79 488.772 C 1237.74 486.672 1239.89 483.292 1240 479.619 C 1240.22 477.039 1240.02 474.289 1238.59 472.054 C 1236.48 468.39 1232.57 465.684 1228.29 465.474 C 1227.82 465.429 1227.35 465.433 1226.88 465.45 z M 1138.33 476.595 C 1135.47 476.719 1132.64 478.847 1132.19 481.753 C 1131.86 484.073 1132.18 486.756 1134.02 488.404 C 1135.56 489.725 1137.62 490.593 1139.67 490.202 C 1142.15 489.888 1144.38 488.149 1145.29 485.823 C 1145.82 484.2 1145.81 482.365 1145.19 480.769 C 1144.51 479.184 1143.18 477.894 1141.66 477.122 C 1140.62 476.652 1139.45 476.534 1138.33 476.595 z M 984.87 476.58 C 982.072 476.926 979.609 479.197 979.176 482.007 C 978.628 484.444 979.544 487.118 981.46 488.72 C 983.461 490.532 986.54 490.61 988.908 489.521 C 991.228 488.517 992.694 486.025 992.659 483.525 C 992.682 481.261 991.609 478.904 989.593 477.759 C 988.205 476.853 986.528 476.375 984.87 476.58 z M 973.912 432.563 C 968.179 432.589 962.318 433.416 957.128 435.967 C 953.72 437.725 951.014 440.749 949.62 444.319 C 948.472 447.057 948.485 450.121 948.981 453.003 C 949.368 455.301 950.414 457.49 952.069 459.144 C 954.456 461.671 957.577 463.533 960.956 464.36 C 964.021 464.954 967.161 464.847 970.267 464.941 C 981.718 465.124 993.18 465.029 1004.62 465.724 C 1011.81 466.304 1018.86 468.243 1025.52 471.021 C 1034.87 474.974 1043.33 480.778 1051.05 487.335 C 1051.49 487.731 1051.74 487.773 1051.64 487.103 C 1048.74 482.33 1045.54 477.736 1042.13 473.318 C 1037.23 467.058 1031.72 461.271 1025.76 456.008 C 1020.25 451.201 1014.1 447.169 1007.64 443.773 C 999.782 439.559 991.57 435.874 982.91 433.658 C 979.971 432.926 976.945 432.499 973.912 432.563 z M 1150.19 432.615 C 1146.48 432.621 1142.77 433.173 1139.23 434.314 C 1131.22 436.716 1123.6 440.246 1116.23 444.154 C 1110.14 447.423 1104.35 451.277 1099.12 455.799 C 1088.55 464.814 1079.82 475.83 1072.64 487.68 C 1073.63 487.572 1074.27 486.707 1075.04 486.151 C 1084.28 478.315 1094.88 471.856 1106.55 468.384 C 1112.39 466.611 1118.47 465.572 1124.58 465.474 C 1133.95 465.158 1143.32 464.984 1152.7 464.925 C 1155.83 464.922 1158.97 465.066 1162.08 464.724 C 1165.02 464.272 1167.73 462.903 1170.18 461.287 C 1172.66 459.564 1174.68 457.102 1175.56 454.186 C 1176.66 450.945 1176.43 447.313 1174.99 444.214 C 1173.12 439.84 1169.38 436.299 1164.85 434.796 C 1160.17 433.088 1155.15 432.562 1150.19 432.615 z M 1061.74 392.985 C 1057.97 393.194 1054.65 395.444 1052.13 398.116 C 1048.95 401.421 1046.98 405.828 1046.56 410.39 C 1045.64 418.066 1045.8 425.864 1046.97 433.505 C 1048.75 445.411 1052.45 456.927 1056.64 468.18 C 1058.24 472.384 1059.88 476.577 1061.7 480.69 C 1061.89 481.044 1062.21 481.715 1062.56 481.143 C 1063.29 480.344 1063.53 479.227 1063.99 478.268 C 1069.5 464.953 1074.42 451.303 1077.13 437.115 C 1078.38 430.539 1079.17 423.828 1078.73 417.128 C 1078.55 412.933 1078.37 408.614 1076.68 404.701 C 1074.87 400.261 1071.68 396.198 1067.26 394.153 C 1065.53 393.362 1063.64 392.895 1061.74 392.985 z M 1020.46 410.993 C 1017.76 411.346 1015.17 412.303 1012.73 413.495 C 1009.76 415.073 1007.12 417.7 1006.31 421.049 C 1005.75 423.686 1006.59 426.489 1008.14 428.64 C 1010.46 431.736 1014.07 433.384 1017.18 435.535 C 1026.17 441.61 1033.61 449.626 1040.6 457.845 C 1041.94 459.4 1043.25 460.976 1044.63 462.495 C 1044.82 461.044 1044.38 459.612 1044.25 458.173 C 1042.9 449.045 1041.4 439.899 1038.77 431.037 C 1037.43 426.803 1036.01 422.449 1033.21 418.928 C 1031.06 416.462 1028.5 414.384 1025.79 412.559 C 1024.23 411.542 1022.37 410.717 1020.46 410.993 z M 1103.03 410.963 C 1100.33 411.224 1098.14 413.014 1096.06 414.596 C 1093.5 416.636 1090.89 418.837 1089.47 421.858 C 1086.35 427.821 1084.84 434.437 1083.4 440.96 C 1081.9 447.884 1080.81 454.888 1079.84 461.903 C 1080.31 462.041 1080.64 461.815 1080.9 461.43 C 1082.77 459.321 1084.55 457.129 1086.47 455.056 C 1091.37 449.625 1096.39 444.265 1102 439.563 C 1105.33 436.832 1109.06 434.651 1112.63 432.266 C 1115.13 430.506 1117.53 428.228 1118.37 425.197 C 1118.92 423.024 1118.67 420.636 1117.53 418.687 C 1115.81 415.603 1112.67 413.635 1109.46 412.397 C 1107.41 411.613 1105.24 410.917 1103.03 410.963 z M 1220.6 439.23 C 1216.63 439.366 1212.89 442.133 1211.62 445.887 C 1211.08 447.712 1211.13 449.66 1211.32 451.534 C 1211.88 454.896 1214.51 457.646 1217.6 458.925 C 1219.55 459.778 1221.8 459.936 1223.81 459.197 C 1226.31 458.453 1228.65 456.889 1229.9 454.552 C 1230.89 453.026 1231.34 451.192 1231.25 449.378 C 1231.28 447.714 1231.1 445.968 1230.13 444.561 C 1228.62 441.979 1226.07 439.914 1223.06 439.451 C 1222.25 439.283 1221.42 439.221 1220.6 439.23 z M 903.915 439.35 C 902.058 439.264 900.128 439.55 898.547 440.587 C 896.315 442.085 894.178 444.157 893.64 446.895 C 893.486 448.738 893.349 450.645 893.844 452.449 C 894.879 455.799 897.886 458.24 901.149 459.281 C 903.112 459.943 905.272 459.721 907.153 458.906 C 910.141 457.684 912.62 455.05 913.37 451.879 C 913.628 450.158 913.697 448.365 913.29 446.662 C 912.536 443.91 910.48 441.613 908.01 440.25 C 906.751 439.597 905.334 439.272 903.915 439.35 z M 924.697 401.438 C 922.03 401.408 919.301 401.834 916.952 403.161 C 911.334 406.075 907.214 411.944 906.891 418.327 C 906.609 422.08 907.404 425.951 909.439 429.145 C 911.508 432.612 914.641 435.522 918.469 436.914 C 924.539 439.272 931.896 438.225 936.861 433.937 C 940.032 431.26 942.558 427.582 943.141 423.407 C 943.762 419.769 943.676 415.881 942.101 412.484 C 940.098 407.898 936.243 404.08 931.529 402.34 C 929.348 401.53 927.001 401.41 924.697 401.438 z M 1199.71 401.415 C 1196.15 401.396 1192.37 401.995 1189.51 404.277 C 1187.13 406.128 1184.96 408.316 1183.34 410.865 C 1181.31 414.212 1181.04 418.275 1181.38 422.084 C 1181.63 425.66 1183.17 429.105 1185.63 431.706 C 1187.24 433.524 1189.09 435.172 1191.3 436.2 C 1193.51 437.328 1195.94 438.07 1198.44 438.079 C 1201.33 438.127 1204.3 437.884 1206.95 436.649 C 1212.12 434.33 1216.01 429.469 1217.41 424.002 C 1218.48 420.006 1217.87 415.69 1216.1 411.987 C 1213.92 407.345 1209.86 403.487 1204.9 402 C 1203.21 401.541 1201.45 401.4 1199.71 401.415 z M 947.115 380.993 C 945.592 380.92 944.047 381.244 942.757 382.08 C 940.173 383.696 937.921 386.255 937.574 389.386 C 937.14 392.628 938.113 396.227 940.733 398.333 C 943.154 400.483 946.597 401.819 949.822 400.957 C 953.396 400.044 956.475 397.214 957.426 393.613 C 958.378 390.439 957.464 386.862 955.259 384.418 C 953.573 382.382 951.043 380.917 948.345 381 L 947.115 380.993 z M 1176.25 380.873 C 1172.12 381.091 1168.33 384.179 1167.32 388.192 C 1166.29 391.734 1167.32 395.864 1170.13 398.315 C 1172.49 400.537 1175.96 401.831 1179.17 400.935 C 1182.13 400.161 1184.92 398.246 1186.3 395.458 C 1187.18 393.486 1187.06 391.268 1186.98 389.161 C 1186.89 387.259 1185.8 385.575 1184.56 384.198 C 1182.46 381.927 1179.34 380.646 1176.25 380.873 z M 984 346.575 C 979.625 346.614 975.415 348.303 971.793 350.671 C 965.591 354.763 961.066 361.484 960.069 368.894 C 959.126 375.391 960.48 382.321 964.35 387.691 C 968.645 394.002 975.721 398.486 983.375 399.172 C 986.541 399.422 989.753 399.195 992.848 398.483 C 999.579 396.786 1005.42 392.188 1009.01 386.292 C 1010.9 383.203 1012.21 379.698 1012.4 376.059 C 1012.57 373.556 1012.56 371.035 1012.34 368.536 C 1011.82 364.667 1010.11 361.044 1007.95 357.826 C 1004.4 352.691 999.034 348.814 993.004 347.178 C 990.066 346.402 987.005 346.626 984 346.575 z M 1136.95 346.462 C 1128.91 346.756 1121.2 351.16 1116.68 357.801 C 1114.34 361.102 1112.77 364.964 1112.32 368.997 C 1111.5 375.105 1112.51 381.629 1115.97 386.818 C 1118.87 391.049 1122.65 394.828 1127.4 396.915 C 1130.96 398.582 1134.9 399.474 1138.84 399.246 C 1142.42 399.193 1146.04 398.567 1149.31 397.049 C 1153.86 394.985 1157.64 391.474 1160.5 387.413 C 1162.78 384.174 1164.19 380.345 1164.59 376.403 C 1164.95 373.167 1164.81 369.867 1164.18 366.674 C 1163.22 362.398 1160.97 358.481 1158.08 355.212 C 1153.94 350.633 1148.23 347.271 1142.01 346.686 C 1140.33 346.498 1138.64 346.441 1136.95 346.462 z M 1061.9 319.065 C 1059.63 328.831 1056.97 338.528 1055.53 348.465 C 1054.45 355.83 1053.92 363.29 1054.17 370.732 C 1054.36 374.865 1055.35 379.147 1058.01 382.416 C 1059.1 383.791 1060.77 384.875 1062.58 384.646 C 1064.07 384.613 1065.5 383.905 1066.39 382.707 C 1068.93 379.711 1070.12 375.799 1070.4 371.933 C 1070.95 364.633 1070.56 357.285 1069.61 350.034 C 1068.92 344.68 1067.77 339.397 1066.37 334.185 C 1065.1 329.251 1063.74 324.338 1062.65 319.361 C 1062.52 318.981 1062.15 318.395 1061.9 319.065 z M 1053.53 320.145 C 1049.8 323.744 1046.18 327.456 1042.77 331.364 C 1039.13 335.596 1035.67 340.018 1032.79 344.807 C 1030.84 348.128 1029.04 351.558 1027.66 355.154 C 1026.44 358.733 1026.4 362.746 1027.68 366.313 C 1028.64 368.756 1031 370.802 1033.72 370.738 C 1036.97 370.772 1039.92 368.776 1041.74 366.194 C 1043.37 363.947 1044.46 361.373 1045.62 358.869 C 1049.5 350.005 1051.3 340.42 1052.67 330.893 C 1053.17 327.416 1053.7 323.936 1053.94 320.43 C 1053.82 320.105 1053.96 319.807 1053.53 320.145 z M 1070.95 320.138 C 1071.09 324.267 1071.73 328.358 1072.27 332.45 C 1073.43 340.295 1074.98 348.122 1077.6 355.62 C 1078.89 359.035 1080.54 362.316 1082.46 365.424 C 1084.04 367.754 1086.28 369.771 1089.03 370.571 C 1091.53 371.132 1094.41 370.274 1095.88 368.093 C 1097.59 365.773 1098.16 362.79 1097.91 359.956 C 1097.79 357.375 1097.03 354.869 1095.91 352.557 C 1093.3 346.726 1089.94 341.236 1085.92 336.272 C 1081.7 330.904 1077.12 325.812 1072.23 321.043 C 1071.85 320.704 1071.48 320.369 1071.09 320.048 L 1070.95 320.138 z M 1017.47 330.615 C 1015.76 330.668 1014.14 331.399 1012.83 332.485 C 1010.9 333.97 1009.07 335.98 1008.75 338.489 C 1008.63 340.104 1008.59 341.748 1008.82 343.35 C 1009.45 345.749 1011.2 347.74 1013.22 349.102 C 1014.85 350.168 1016.76 350.872 1018.71 350.95 C 1022.6 350.729 1026.38 348.347 1027.94 344.719 C 1029.09 342.209 1029.18 339.201 1027.98 336.69 C 1026.82 334.062 1024.64 331.747 1021.83 330.927 C 1020.41 330.561 1018.93 330.619 1017.47 330.615 z M 1105.02 330.615 C 1102.99 330.534 1101.08 331.501 1099.58 332.811 C 1097.71 334.346 1096.19 336.534 1096.1 339.022 C 1096.02 340.9 1095.9 342.868 1096.67 344.632 C 1098.3 348.383 1102.3 351.037 1106.41 350.945 C 1110.08 350.553 1113.61 348.328 1115.17 344.924 C 1116.36 342.468 1116.45 339.548 1115.47 337.007 C 1114.61 334.552 1112.69 332.554 1110.36 331.443 C 1108.72 330.557 1106.83 330.586 1105.02 330.615 z M 923.753 307.642 C 922.423 308.033 921.073 308.373 919.695 308.535 C 919.809 308.194 919.417 307.347 919.995 307.47 L 924.322 307.47 L 923.753 307.642 z" stroke-linecap="round" />
</g>
</svg>